<svg width="580" height="300" xmlns="http://www.w3.org/2000/svg">
 <!-- Created with Method Draw - http://github.com/duopixel/Method-Draw/ -->

 <g>
  <title>background</title>
  <rect fill="#fff" id="canvas_background" height="302" width="582" y="-1" x="-1"/>
  <g display="none" overflow="visible" y="0" x="0" height="100%" width="100%" id="canvasGrid">
   <rect fill="url(#gridpattern)" stroke-width="0" y="0" x="0" height="100%" width="100%"/>
  </g>
 </g>
 <g>
  <title>Layer 1</title>
  <!-- Created with Method Draw - http://github.com/duopixel/Method-Draw/ -->
  <g stroke="null" id="svg_39">
   <g stroke="null" transform="matrix(0.9669367340904524,0,0,0.9971850224012537,-4997.089520400971,-3562.8468028259736) " id="svg_36">
    <title stroke="null" transform="translate(1.0341938734054565,-1.0028228759765625) translate(-8.273550987243652,-4.01129150390625) translate(-5.170969009399414,51.14397048950195) translate(5197.52490234375,0) translate(0,3525) ">background</title>
    <rect stroke="null" x="5184.114576" y="3570.129856" width="582" height="402" id="svg_34" fill="#fff"/>
    <g stroke="null" id="svg_33" display="none">
     <rect stroke="null" id="svg_37" width="580" height="400" x="5185.114576" y="3571.129856" stroke-width="0" fill="url(#gridpattern)"/>
    </g>
   </g>
   <g id="svg_68">
    <g stroke="null" transform="matrix(0.9669367340904524,0,0,0.9971850224012537,-4997.089520400971,-3562.8468028259736) " id="svg_38">
     <title stroke="null" transform="translate(0,10.028229713439941) translate(0,1.0028228759765625) translate(0,1.0028228759765625) translate(0,1.0028228759765625) translate(0,1.0028228759765625) translate(0,1.0028228759765625) translate(0,1.0028228759765625) translate(0,1.0028228759765625) translate(0,1.0028228759765625) translate(0,1.0028228759765625) translate(0,1.0028228759765625) translate(0,1.0028228759765625) translate(0,1.0028228759765625) translate(0,1.0028228759765625) translate(0,1.0028228759765625) translate(0,1.0028228759765625) translate(0,1.0028228759765625) translate(0,1.0028228759765625) translate(0,1.0028228759765625) translate(0,1.0028228759765625) translate(0,1.0028228759765625) translate(0,1.0028228759765625) translate(0,1.0028228759765625) translate(0,-1.0028228759765625) translate(0,-1.0028228759765625) translate(0,-1.0028228759765625) translate(0,-1.0028228759765625) translate(0,-1.0028228759765625) translate(0,-1.0028228759765625) translate(0,-1.0028228759765625) translate(0,-1.0028228759765625) translate(0,-1.0028228759765625) translate(0,-1.0028228759765625) translate(0,-1.0028228759765625) translate(0,-1.0028228759765625) translate(0,-1.0028228759765625) translate(0,-1.0028228759765625) translate(0,-1.0028228759765625) translate(0,-1.0028228759765625) translate(0,-1.0028228759765625) translate(0,-1.0028228759765625) translate(0,-1.0028228759765625) translate(0,-1.0028228759765625) translate(0,-1.0028228759765625) translate(0,-1.0028228759765625) translate(0,-1.0028228759765625) translate(0,-1.0028228759765625) translate(0,-1.0028228759765625) translate(0,-1.0028228759765625) translate(0,-1.0028228759765625) translate(0,-1.0028228759765625) translate(0,-1.0028228759765625) translate(0,-1.0028228759765625) translate(0,-1.0028228759765625) translate(0,-1.0028228759765625) translate(0,-1.0028228759765625) translate(0,-1.0028228759765625) translate(0,-1.0028228759765625) translate(0,-1.0028228759765625) translate(0,-1.0028228759765625) translate(0,-1.0028228759765625) translate(0,-1.0028228759765625) translate(0,-1.0028228759765625) translate(0,-1.0028228759765625) translate(0,-1.0028228759765625) translate(0,-1.0028228759765625) translate(0,-1.0028228759765625) translate(0,-1.0028228759765625) translate(0,-1.0028228759765625) translate(0,-1.0028228759765625) translate(0,-1.0028228759765625) translate(0,-1.0028228759765625) translate(0,-1.0028228759765625) translate(0,-1.0028228759765625) translate(0,-1.0028228759765625) translate(0,-1.0028228759765625) translate(0,-1.0028228759765625) translate(0,-1.0028228759765625) translate(0,-1.0028228759765625) translate(0,-1.0028228759765625) translate(0,-1.0028228759765625) translate(0,-1.0028228759765625) translate(0,-1.0028228759765625) translate(0,-1.0028228759765625) translate(0,-1.0028228759765625) translate(0,-1.0028228759765625) translate(0,-1.0028228759765625) translate(0,-1.0028228759765625) translate(0,-1.0028228759765625) translate(0,-1.0028228759765625) translate(0,-1.0028228759765625) translate(0,-1.0028228759765625) translate(0,-1.0028228759765625) translate(0,-1.0028228759765625) translate(0,-1.0028228759765625) translate(0,-1.0028228759765625) translate(0,-1.0028228759765625) translate(0,-1.0028228759765625) translate(0,-1.0028228759765625) translate(0,-1.0028228759765625) translate(0,-1.0028228759765625) translate(0,-1.0028228759765625) translate(0,-1.0028228759765625) translate(0,-1.0028228759765625) translate(0,-1.0028228759765625) translate(0,-1.0028228759765625) translate(0,-1.0028228759765625) translate(0,-1.0028228759765625) translate(0,-1.0028228759765625) translate(0,-1.0028228759765625) translate(0,-1.0028228759765625) translate(0,-1.0028228759765625) translate(0,-1.0028228759765625) translate(0,-1.0028228759765625) translate(0,-1.0028228759765625) translate(0,-1.0028228759765625) translate(0,-1.0028228759765625) translate(0,-1.0028228759765625) translate(0,-1.0028228759765625) translate(0,-1.0028228759765625) translate(0,-1.0028228759765625) translate(0,-1.0028228759765625) translate(0,-1.0028228759765625) translate(0,-1.0028228759765625) translate(0,-1.0028228759765625) translate(0,-1.0028228759765625) translate(0,-1.0028228759765625) translate(0,-1.0028228759765625) translate(0,-1.0028228759765625) translate(0,-1.0028228759765625) translate(0,-1.0028228759765625) translate(0,-1.0028228759765625) translate(0,-1.0028228759765625) translate(0,-1.0028228759765625) translate(0,-1.0028228759765625) translate(0,-1.0028228759765625) translate(0,-1.0028228759765625) translate(0,-1.0028228759765625) translate(0,-1.0028228759765625) translate(0,-1.0028228759765625) translate(0,-1.0028228759765625) translate(0,-1.0028228759765625) translate(0,-1.0028228759765625) translate(0,-1.0028228759765625) translate(0,-1.0028228759765625) translate(0,-1.0028228759765625) translate(0,-1.0028228759765625) translate(0,-1.0028228759765625) translate(0,-1.0028228759765625) translate(0,-1.0028228759765625) translate(0,-1.0028228759765625) translate(0,-1.0028228759765625) translate(0,-1.0028228759765625) translate(0,-1.0028228759765625) translate(0,-1.0028228759765625) translate(0,-1.0028228759765625) translate(0,-1.0028228759765625) translate(-5.170969009399414,51.14397048950195) translate(5197.52490234375,0) translate(0,3525) ">Layer 1</title>
     <g stroke="null" id="svg_20">
      <line stroke="#4c4c4c" fill="none" stroke-width="8" x1="5353.353933" y1="3830.856038" x2="5515.353933" y2="3830.856038" id="svg_32" stroke-linejoin="undefined" stroke-linecap="undefined"/>
      <line stroke="#4c4c4c" fill="none" stroke-width="8" x1="5514.353933" y1="3830.856038" x2="5568.353933" y2="3679.856038" id="svg_31" stroke-linejoin="undefined" stroke-linecap="undefined" stroke-dasharray="5,5"/>
      <line stroke="#7f7f00" fill="none" stroke-width="4" stroke-opacity="null" fill-opacity="null" x1="5518.353933" y1="3830.856038" x2="5618.353933" y2="3830.856038" id="svg_30" stroke-linejoin="null" stroke-linecap="null"/>
      <line stroke="#7f7f00" fill="none" stroke-width="4" stroke-opacity="null" fill-opacity="null" x1="5600.353933" y1="3812.856038" x2="5619.353933" y2="3831.856038" id="svg_29" stroke-linejoin="null" stroke-linecap="null"/>
      <line stroke="#7f7f00" fill="none" stroke-width="4" stroke-opacity="null" fill-opacity="null" x1="5600.353933" y1="3849.856039" x2="5619.353933" y2="3829.856038" id="svg_28" stroke-linejoin="null" stroke-linecap="null"/>
      <ellipse stroke="#7f7f00" fill="none" stroke-width="4" stroke-opacity="null" fill-opacity="null" cx="5499.353927" cy="3828.356038" id="svg_27" rx="148.000009" ry="165.500005"/>
      <path stroke="#ffffff" fill="none" stroke-width="4" id="svg_26" d="m5639.353933,3766.856038c0,-2 0.69345,-3.4588 2,-4c0.92389,-0.38269 2.4588,-0.30656 3,1c0.38269,0.92387 0,2 0,4c0,1 -0.69345,3.4588 -2,4c-0.92389,0.38269 -1.69345,1.4588 -3,2c-2.77164,1.14806 -4.07611,0.38269 -5,0c-1.30655,-0.5412 -1.9176,-1.38687 -3,-4c-0.38269,-0.92387 -0.16019,-2.01291 0,-3c0.50653,-3.12144 1,-4 3,-6c2,-2 2.69345,-3.4588 4,-4c1.84775,-0.76537 3.4588,-0.30656 4,1c0.76538,1.84776 -0.48056,5.03874 0,8c0.50653,3.12144 1,4 1,7c0,1 0,2 0,3c0,2 -1,3 -2,2c-1,-1 -1.48627,-2.82375 -2,-5c-0.22977,-0.97325 0.38269,-4.07613 0,-5c-0.5412,-1.30656 -1,-3 -1,-4c0,-1 -2,-2.41422 -2,-1c0,1.41422 1,2 1,3c0,2 0,3 0,4c0,1 0,3 0,2c0,-3 -0.49347,-4.87856 -1,-8c-0.32037,-1.97418 0,-4 0,-5c0,-1 -0.48627,-1.82375 -1,-4c-0.22977,-0.97325 0,-2 0,-1c0,2 0,6 0,9c0,3 0,6 0,8c0,3 0.98709,4.83981 0,5c-3.12143,0.50655 -1,-6 -1,-8c0,-3 0,-4 0,-6c0,-3 0,-4 0,-5c0,-2 0.14935,-3.52573 1,-3c1.9021,1.17557 2.49622,4.90779 3,9c0.24435,1.98502 1.95517,5.54915 3,9c0.2898,0.95709 -0.38269,2.07613 0,3c0.5412,1.30656 1,-1 1,-3c0,-2 0,-4 0,-7c0,-1 0.76538,-3.15224 0,-5c-1.0824,-2.61313 -2.69254,-3.18601 -4,-5c-1.65381,-2.29454 -2.58578,-4 -4,-4c-1.41422,0 -1.48056,2.03874 -1,5c0.50653,3.12144 3.49347,6.87856 4,10c0.48056,2.96126 -0.14804,5.22836 1,8c0.5412,1.30656 1,2 2,3c1,1 1,2 1,0c0,-3 0.91901,-4.10701 0,-8c-0.51373,-2.17625 -1.83981,-5.01291 -2,-6c-0.50653,-3.12144 -2.69345,-5.4588 -4,-6c-0.92389,-0.38269 -2,2 -2,3c0,3 -0.48874,5.02997 0,9c0.50378,4.09221 0.08099,6.10701 1,10c0.51373,2.17625 2.48627,3.82375 3,6c0.4595,1.9465 0,5 1,5c1,0 0,-5 0,-7c0,-4 -2,-8 -2,-10c0,-1 -1.97324,-4.77025 -1,-5c2.17624,-0.51375 1.23462,3.15224 2,5c0.5412,1.30656 3.69254,4.18601 5,6c0.8269,1.14726 1,2 2,5l2,1"/>
      <path stroke="#ffffff" fill="none" stroke-width="4" id="svg_25" d="m5633.353933,3862.856038c1,-1 3,-3 5,-5c3,-3 4,-5 6,-9c2,-4 3,-6 4,-9c1,-3 1,-7 3,-11c1,-2 1,-5 1,-7c0,-3 0,-4 0,-5c0,-2 -1.15225,-3.76537 -3,-3c-2.61313,1.0824 -3.66537,3.50624 -5,6c-2.40601,4.49568 -2.75565,8.01498 -3,10c-0.50378,4.09222 -1,8 -1,11c0,3 0,5 0,9c0,1 -0.85065,3.47427 0,4c1.9021,1.17557 4.90967,-3.30804 7,-7c2.03146,-3.58792 1.49756,-7.92578 2,-13c0.39416,-3.98053 -0.68927,-9.08025 0,-12c1.0275,-4.35251 2,-6 2,-7c0,-3 0.39597,-5.22653 -1,-5c-2.20718,0.35818 -0.85123,4.13376 -2,9c-1.0275,4.35251 -1.02908,9.06766 -2,16c-1.00977,7.20975 -2,14 -2,18c0,3 -1,5 -1,3c0,-6 0.49814,-17.01242 0,-27c-0.50061,-10.0374 -1,-19 -1,-26c0,-5 2,-8 0,-8c-3,0 0,8 0,16c0,10 0,16 0,23c0,8 0,15 0,21c0,3 0,6 0,7c0,1 -0.20779,-1.00433 0,-6c0.50043,-12.03119 5,-26 5,-39c0,-12 0.99246,-22.81557 2,-31c0.24435,-1.98502 0,-3 0,0c0,4 0,11 0,18c0,8 0,16 0,26c0,8 0,15 0,21c0,6 -1,8 0,8c1,0 0,-6 0,-16c0,-10 0,-21 0,-32c0,-11 0,-21 0,-32c0,-7 1,-12 0,-12c-5,0 -2,11 -2,21c0,11 -2.99707,20.88535 -4,34c-0.68625,8.97379 -3,19 -3,28c0,8 0.48056,15.03873 0,18c-0.50653,3.12143 -1.30655,4.4588 0,5c1.84775,0.76538 5.2215,-0.81937 6,-2c2.96448,-4.49576 4.14471,-11.05246 5,-18c1.00754,-8.18442 4.47553,-15.59311 6,-24c1.60584,-8.85558 2,-15 2,-19c0,-3 0.30655,-5.5412 -1,-5c-0.92389,0.38269 -0.60584,6.01947 -1,10c-0.50244,5.0742 -1.49622,8.90779 -2,13c-0.36655,2.97751 0.66251,6.31 -1,9c-0.7435,1.203 -0.38907,-3.03748 -1,-8c-1.00754,-8.18443 -3.01462,-16.04866 -4,-26c-1.00488,-10.14841 -3.2005,-20.19374 -6,-30c-2.34543,-8.21578 -3,-17 -6,-23c-1,-2 -1,-1 -1,3c0,6 0,14 0,22c0,3 0,7 0,8c0,2 1,3 2,2c1,-1 2.54135,-2.70267 4,-6c1.66803,-3.77065 1,-8 1,-12c0,-3 0,-6 0,-8c0,-2 0,2 0,6c0,3 1.99246,7.81557 3,16c0.61093,4.96254 0.9176,10.38687 2,13c0.38269,0.92387 0,3 0,-1c0,-2 -1.49347,-5.87856 -2,-9c-0.32037,-1.97418 -1,-4 -1,-5c0,-1 0,3 0,8c0,6 2.46872,12.53976 4,20c1.60852,7.83662 0.49622,14.90779 1,19c0.36655,2.97752 1.99027,6.80292 0,7c-5.07422,0.50244 -2.24664,-11.15015 -5,-23c-2.36289,-10.1694 -4.99246,-18.81557 -6,-27c-1.09964,-8.93257 -1.3851,-15.37201 -4,-19c-0.8269,-1.14726 -0.50244,0.9258 0,6c0.88684,8.95621 2.99246,16.81557 4,25c0.61093,4.96254 0.9725,10.64749 2,15c0.68927,2.91975 1.49347,4.87856 2,8c0.32037,1.97418 0.61731,3.07613 1,4c0.5412,1.30656 2,-3 2,-6c0,-4 0,-9 0,-16c0,-8 -0.39172,-15.18726 -2,-22c-2.05496,-8.705 -5.50513,-13.02045 -6,-19c-0.50171,-6.06204 -1,-7 -1,-6c0,4 1.67007,6.01363 2,10c0.50171,6.06204 2.11588,9.96384 3,13c1.15277,3.95868 2.1731,4.85274 3,6c1.30746,1.81399 0.61731,3.07613 1,4c0.5412,1.30656 1,0 1,-3c0,-4 0,-8 0,-10c0,-2 0,-3 0,-2c0,3 0,5 0,9c0,3 0,6 0,9c0,2 0,3 0,6c0,1 0,2 0,4c0,1 0,0 0,-4c0,-4 0,-6 0,-9c0,-2 2,-5 0,-5c-1,0 0,5 0,8c0,2 0,5 0,7c0,3 -0.30746,4.18601 1,6c0.8269,1.14726 1.43048,1.867 0,-2c-0.77579,-2.09717 -0.33749,-7.31001 -2,-10c-1.487,-2.40601 -1.61731,-4.07613 -2,-5c-0.5412,-1.30656 -1,-4 -1,-5c0,-1 0,-2 0,-4c0,-2 0,-3 0,-6c0,-2 0.38269,-4.07613 0,-5c-0.5412,-1.30656 -2,0 -2,1c0,3 0.68927,6.08025 0,9c-1.0275,4.35251 -3,8 -3,10c0,2 -2,7 -1,7c1,0 1.29083,-3.50035 5,-15c1.56528,-4.85283 3.49347,-7.87856 4,-11c0.16019,-0.98709 -0.38269,-4.07613 0,-5c0.5412,-1.30656 1,-2 1,-4c0,-1 0.30746,-2.18601 -1,-4c-1.65381,-2.29454 -1.85196,-3.22836 -3,-6c-0.5412,-1.30656 -2.71411,-3.21167 -5,-6c-0.89661,-1.09367 -2,-1 -3,-1c-1,0 -4,0 -5,0c-1,0 -3,1 -4,1c-1,0 -3.15225,0.76537 -5,0c-1.30655,-0.5412 0,-1 1,-1c3,0 5,0 8,0c1,0 4,0 5,1c1,1 1.33749,2.31001 3,5c1.487,2.40601 2,4 2,6c0,4 0,5 0,8c0,1 -1,2 -2,2c-2,0 -5.25433,-0.82132 -8,-5c-4.42725,-6.73793 -10.19669,-14.89351 -15,-24c-4.17285,-7.91122 -6,-9 -6,-11c0,-1 -0.65381,-3.29454 1,-1c1.30746,1.814 3.41885,4.25658 5,9c0.63245,1.89737 1.14429,5.93414 2,8c1.21014,2.92157 2.69254,6.18601 4,8c0.8269,1.14726 1,0 1,-2c0,-2 -0.66251,-4.31001 1,-7c1.487,-2.40601 2.69345,-3.4588 4,-4c1.84775,-0.76537 4.20682,0.81265 6,3c2.28589,2.78833 4.48627,4.82375 5,7c0.4595,1.9465 1.4588,3.69344 2,5c0.76538,1.84776 -0.69345,3.4588 -2,4c-1.84775,0.76537 -3,0 -4,0c-3,0 -4.70547,-0.34619 -7,-2c-1.81399,-1.30745 -3.48627,-1.82375 -4,-4c-0.4595,-1.9465 -0.48627,-3.82375 -1,-6c-0.22977,-0.97325 -0.38269,-3.07613 0,-4c0.5412,-1.30656 2.02676,-1.22975 3,-1c2.17624,0.51375 3.513,4.59399 5,7c1.66251,2.68999 1,4 1,5c0,1 0.30655,3.4588 -1,4c-0.92389,0.38269 -4.02676,0.22975 -5,0c-2.17624,-0.51375 -3.82443,-1.09789 -5,-3c-0.52573,-0.85065 0,-2 0,-3c0,-3 0,-4 0,-5c0,-1 0,-3 0,-4c0,-1 0.62363,-2.67508 2,-3c3.0777,-0.72655 3,2 3,3c0,1 0,2 0,4c0,1 -1,2 -2,2c-2,0 -4.3851,-2.37201 -7,-6c-0.8269,-1.14726 -1.4588,-3.69344 -2,-5c-0.76538,-1.84776 0,-4 0,-5c0,-1 1,-3 2,-2c1,1 2.95517,1.54915 4,5c0.57956,1.91418 0,3 0,4c0,2 0,3 0,4c0,3 -1,4 -2,4c-3,0 -5.54135,-1.70267 -7,-5c-1.66803,-3.77065 -2.49622,-5.90779 -3,-10c-0.24435,-1.98502 0,-5 0,-7c0,-2 0,-4 0,-5c0,-2 1.02676,-3.22975 2,-3c2.17624,0.51375 5,4 6,6c2,4 2.54135,5.70267 4,9c1.66803,3.77065 1.48627,4.82375 2,7c0.4595,1.9465 0,3 0,1c0,-2 0,-3 0,-4c0,-1 0,-3 -1,-3c-2,0 -3,0 -5,-2c-1,-1 -2.69254,-3.186 -4,-5c-1.65381,-2.29454 -1.69345,-4.5412 -3,-4c-3.69553,1.53073 0,6 0,9c0,1 1.4588,2.30656 2,1c0.76538,-1.84776 0,-4 0,-6c0,-3 0,-4 0,-5c0,-1 1.10339,-2.09367 2,-1c2.28589,2.78833 2.33749,4.31001 4,7c0.7435,1.203 3,3 3,4c0,1 0,2 0,3c0,2 0.9021,3.82443 -1,5c-0.85065,0.52573 -3.1731,0.14726 -4,-1c-1.30746,-1.81399 -1,-3 -1,-5c0,-1 -0.4588,-1.69344 -1,-3c-0.76538,-1.84776 -0.85065,-3.47427 0,-4c1.9021,-1.17557 2.49347,2.87856 3,6c0.32037,1.97418 1,4 1,5c0,1 1,2 1,1c0,-1 0,-2 0,-3c0,-2 1,-4 0,-4c-1,0 -0.7102,2.04291 -1,3c-1.04483,3.45085 -1.69254,4.18601 -3,6c-0.8269,1.14726 -0.0979,2.82443 -2,4c-0.85065,0.52573 -3,-1 -4,-2c-1,-1 -3,-3 -3,-6c0,-1 -1,-4 -1,-6c0,-3 -0.49347,-4.87856 -1,-8c-0.32037,-1.97418 0.4595,-5.0535 0,-7c-0.51373,-2.17625 -1,-3 -1,-5c0,-2 0.61313,-6.08239 -2,-5c-2.77164,1.14805 1,6 1,9c0,3 1,5 1,8c0,1 0,2 0,4c0,1 0,-1 0,-4c0,-2 0,-5 0,-7c0,-3 0,-5 0,-8c0,-1 0,-2 0,0c0,2 0.4595,5.0535 0,7c-1.0275,4.35251 -2.48627,6.82375 -3,9c-0.68927,2.91975 1.14804,5.22836 0,8c-0.5412,1.30656 -1,-1 -1,-4c0,-2 -0.65482,-5.17697 1,-10c0.72568,-2.11504 0.67963,-5.02582 1,-7c0.50653,-3.12144 2,-5 2,-4c0,3 0,7 0,11c0,4 0,6 0,9c0,1 1.9176,2.61313 3,0c1.14804,-2.77164 0,-4 0,-7c0,-2 0.48627,-2.82375 1,-5c0.22977,-0.97325 0,-3 0,-2c0,1 -1,5 0,5c2,0 0,-5 0,-9c0,-2 0,-3 0,-7c0,-1 0,2 0,6c0,4 0,6 0,7c0,2 -1,3 -1,2c0,-1 0.68927,-5.08025 0,-8c-0.51373,-2.17625 -2.10339,-5.90633 -3,-7c-2.28589,-2.78832 -1.77023,-5.02675 -2,-6c-0.51373,-2.17625 -0.69345,-4.5412 -2,-4c-0.92389,0.38268 0.48056,5.03873 0,8c-0.50653,3.12144 -1.9725,4.6475 -3,9c-0.22977,0.97325 -0.4588,2.69344 -1,4c-0.38269,0.92387 -1.48627,2.17625 -2,0c-0.91901,-3.89299 -1.63345,-7.02248 -2,-10c-0.50378,-4.09222 -1.5405,-6.05351 -2,-8c-0.51373,-2.17625 -0.29291,-3.29289 -1,-4c-0.70709,-0.70711 -2,1 -2,3c0,3 0.68927,5.08025 0,8c-0.51373,2.17625 0.20718,4.64182 -2,5c-1.39597,0.22653 -0.85123,-5.13376 -2,-10c-0.51373,-2.17625 -1,-5 -1,-6c0,-1 -0.48627,-2.17625 -1,0c-0.22977,0.97325 0,2 0,4c0,1 -0.07611,2.61732 -1,3c-2.61313,1.08239 -1.78986,-3.07844 -3,-6c-0.85571,-2.06586 -1,-3 -1,-5c0,-1 -0.77023,0.02675 -1,1c-1.0275,4.3525 -5.38895,5.92807 -3,8c1.68924,1.46507 2.69254,-2.186 4,-4c1.65381,-2.29454 3.07611,-2.61732 4,-3c1.30655,-0.5412 2,-1 3,-2c1,-1 2.69254,0.186 4,2c1.65381,2.29454 1.31073,3.08025 2,6c0.51373,2.17625 1.51944,5.03873 2,8c0.50653,3.12144 2.61731,4.92388 3,4c0.5412,-1.30656 1,-2 1,-3c0,-2 -0.22977,-3.02675 0,-4c0.51373,-2.17625 1,1 1,3c0,3 0,4 0,1c0,-5 -0.39172,-13.18726 -2,-20c-1.0275,-4.3525 -2,-6 -2,-5c0,4 0,8 0,10c0,3 1.49347,6.87856 2,10c0.48056,2.96127 2.51944,7.03873 3,10c0.50653,3.12144 2,5 2,7c0,1 0,2 0,0c0,-3 0,-7 0,-10c0,-4 0,-8 0,-10c0,-1 1,-4 0,-4c-1,0 0,5 0,9c0,3 0.14429,5.93414 1,8c1.21014,2.92157 2,4 1,4c-1,0 -3.70547,-1.34619 -6,-3c-1.81399,-1.30745 -5.18601,-3.69255 -7,-5c-1.14728,-0.8269 -2.30655,-2.4588 -1,-3c0.92389,-0.38268 5.19028,1.88152 7,5c2.24469,3.868 5.33749,9.31001 7,12c1.487,2.40601 3.4588,4.30656 4,3c0.38269,-0.92387 2.69254,1.186 4,3c1.65381,2.29454 4,6 5,7c1,1 1.67963,3.02582 2,5c0.50653,3.12144 3,4 6,10c4,8 9,15 13,23c4,8 8.228,12.2771 10,16c2.14887,4.51469 4.4588,5.69344 5,7c0.38269,0.92387 0,2 0,3c0,1 0,3 0,5c0,3 1,5 1,8c0,2 0,3 0,5c0,1 0,2 0,3c0,2 0,4 0,5c0,3 0,5 0,7c0,1 0,2 0,3c0,2 0,3 0,4c0,1 0.9176,2.38687 2,5c0.38269,0.92389 0,3 0,4c0,1 0,4 0,5c0,2 0,4 0,6c0,1 0.22977,3.02676 0,4c-0.51373,2.17624 -1,4 -1,5c0,1 -0.49347,1.87857 -1,5c-0.16019,0.98709 0,2 0,4c0,1 0,2 -1,3c-1,1 -3,3 -3,1c0,-3 0,-5 0,-8c0,-2 0,-5 0,-6c0,-1 0,2 0,5c0,2 -0.48627,3.17624 -1,1c-0.22977,-0.97324 0,-4 0,-6c0,-1 0,-3 0,-5c0,-1 0,1 0,5c0,2 0,5 0,7c0,3 0,4 0,5c0,1 0.32037,-0.02582 0,-2c-0.50653,-3.12143 -0.61731,-5.07611 -1,-6c-0.5412,-1.30655 -2,1 -2,2c0,2 -1.4588,5.69345 -2,7c-1.14804,2.77164 0.6149,5.37201 -2,9c-0.8269,1.14728 -2,2 -2,1c0,-1 0,-2 0,-3c0,-3 0.31073,-5.08026 1,-8c0.51373,-2.17624 1.48627,-4.82376 2,-7c0.22977,-0.97324 -0.76538,-3.15225 0,-5c0.5412,-1.30655 3.1731,-2.85272 4,-4c1.30746,-1.81399 2.07611,-2.61731 3,-3c1.30655,-0.5412 1.69345,-3.5412 3,-3c0.92389,0.38269 0,3 0,6c0,2 0,5 0,7c0,3 0.28589,4.21167 -2,7c-0.89661,1.09366 -1.48627,1.82376 -2,4c-0.22977,0.97324 0,-1 0,-3c0,-2 0.60645,-4.5387 2,-7c2.03146,-3.58792 1,-5 1,-4c0,2 -1.14429,5.93414 -2,8c-1.21014,2.92157 -1.38055,6.76303 -5,13c-1.12234,1.93399 -1.69254,5.18601 -3,7c-0.8269,1.14728 -1,-1 -1,-3c0,-3 1,-6 1,-8c0,-1 1,-3 1,-2c0,3 0,6 0,10c0,3 -2.48627,6.82376 -3,9c-0.22977,0.97324 -0.2565,2.797 -1,4c-1.66251,2.69 -3,5 -3,4c0,-2 1,-5 2,-8c1,-3 -0.03146,-5.41208 2,-9c0.69678,-1.23065 0.85571,-0.06586 0,2c-1.21014,2.92157 -0.33749,5.31 -2,8c-2.2305,3.60901 -3.21167,4.71411 -6,7c-3.28101,2.68979 -4.51929,4.5582 -7,8c-1.30746,1.81399 -2.7102,5.04291 -3,6c-1.04483,3.45084 -2.7435,5.203 -2,4c1.66251,-2.69 3.3764,-4.08032 5,-8c0.38269,-0.92389 2,-4 2,-5c0,-2 0.69254,-5.18601 2,-7c0.8269,-1.14728 1.38687,-5.0824 4,-4c0.92389,0.38269 0,4 0,6c0,4 0.44891,8.21454 -1,13c-1.04483,3.45084 -3.49622,4.90778 -4,9c-0.12219,0.99249 -2,2 -1,3c3,3 3.42215,-6.19074 5,-10c2.23142,-5.38709 3.77518,-14.41049 7,-22c3.6893,-8.68268 5.49829,-13.93796 6,-20c0.08249,-0.99658 -0.14728,-4.8269 1,-4c1.81399,1.30746 0.53073,6.30447 -1,10c-1.0824,2.61313 -2.34518,6.17697 -4,11c-2.90274,8.46014 -4,9 -6,13c-1,2 -3.87766,6.06601 -5,8c-1.80972,3.11847 -3.69254,5.18601 -5,7c-0.8269,1.14728 -1,0 -1,-4c0,-2 2.41885,-5.25659 4,-10c0.94867,-2.84604 -0.03146,-7.41208 2,-11c1.39355,-2.4613 3,-4 3,-3c0,2 0,5 0,9c0,4 -0.4484,7.80566 -2,12c-1.43048,3.867 -0.67819,7.13074 0,5c3.98923,-12.53339 4.41263,-28.09009 7,-43c2.44803,-14.10699 5,-26 7,-33c2,-7 -0.0777,-13.27345 3,-14c1.37637,-0.32492 -0.49347,4.87856 -1,8c-0.32037,1.97418 -1,5 -1,7c0,1 -1.23462,3.15225 -2,5c-0.5412,1.30655 -0.83981,2.01291 -1,3c-0.50653,3.12143 -0.83981,4.01291 -1,5c-0.50653,3.12143 -0.83981,4.01291 -1,5c-0.50653,3.12143 -3,5 -3,8c0,2 -0.49622,4.90778 -1,9c-0.24435,1.98502 0,5 0,6c0,1 0,3 0,5c0,1 0,2 0,4c0,1 1.18601,2.30746 3,1c1.14728,-0.8269 2,-2 4,-4c1,-1 1.48627,-1.82376 2,-4c0.22977,-0.97324 0.48627,-2.82376 1,-5c0.22977,-0.97324 0,0 0,3c0,2 -0.7102,5.04291 -1,6c-1.04483,3.45084 -3.4588,4.69345 -4,6c-0.76538,1.84775 -1,3 -2,4c-1,1 -1,-1 -1,-2c0,-3 0.97324,-5.77023 0,-6c-2.17624,-0.51373 -1.33749,4.31 -3,7c-2.2305,3.60901 -3.19028,3.88153 -5,7c-2.24469,3.86798 -3.41589,4.76108 -5,8c-1.38934,2.84073 -2.61731,5.07611 -3,6c-0.5412,1.30655 -2,3 -2,4c0,1 -1.4588,1.69345 -2,3c-0.38269,0.92389 -0.4588,1.69345 -1,3c-0.38269,0.92389 0,3 0,4c0,1 0,2 0,4c0,1 -1,2 -1,3c0,2 -1.70709,3.29291 -1,4c0.70709,0.70709 2.91754,-3.05664 5,-6c2.88785,-4.0817 4.9725,-7.64749 6,-12c0.22977,-0.97324 0.69345,-5.5412 2,-5c0.92389,0.38269 -1.19028,1.88153 -3,5c-1.12234,1.93399 -2.71411,4.21167 -5,7c-0.89661,1.09366 -4.1731,3.85272 -5,5c-1.30746,1.81399 -2.69345,5.5412 -4,5c-1.84775,-0.76538 0.9176,-2.38687 2,-5c0.38269,-0.92389 0.2565,-1.797 1,-3c1.66251,-2.69 2.9176,-3.38687 4,-6c0.38269,-0.92389 0.69345,-3.5412 2,-3c1.84775,0.76538 -0.87766,4.06601 -2,6c-1.80972,3.11847 -2.69254,5.18601 -4,7c-0.8269,1.14728 -1.69345,3.5412 -3,3c-3.69553,-1.53073 1.61066,-7.15927 3,-10c1.58411,-3.23892 3.1731,-5.85272 4,-7c1.30746,-1.81399 0.69345,-4.5412 2,-4c0.92389,0.38269 0.57956,3.08582 0,5c-1.04483,3.45084 -3.9176,4.38687 -5,7c-0.38269,0.92389 -3,4 -5,6c-2,2 -2.71411,3.21167 -5,6c-1.79318,2.18735 -4,4 -5,5c-2,2 -3,3 -4,4c-1,1 0.21167,0.28589 3,-2c1.09366,-0.89661 2.21167,-1.71411 5,-4c1.09366,-0.89661 2,-2 2,0c0,3 -1.71899,6.31021 -5,9c-2.78833,2.28589 -4.61291,3.76858 -10,6c-3.80926,1.57785 -7.3378,3.24042 -14,6c-4.71088,1.95132 -8.15225,0.23462 -10,1c-1.30655,0.5412 2.21167,0.28589 5,-2c3.28101,-2.68979 5.71899,-5.31021 9,-8c2.78833,-2.28589 4.85272,-4.1731 6,-5c3.62799,-2.6149 5.48627,-2.17624 6,0c0.91901,3.89301 -0.18835,6.94367 -1,10c-1.30875,4.92819 -3.2565,7.797 -4,9c-1.66251,2.69 -3.12234,4.93399 -2,3c1.80972,-3.11847 4,-6 5,-8c1,-2 4.2565,-6.797 5,-8c1.66251,-2.69 2.9176,-3.38687 4,-6c0.38269,-0.92389 -1,-2 -2,-1c-1,1 -3.85272,4.1731 -5,5c-1.81399,1.30746 -3.70547,2.34619 -6,4c-1.81399,1.30746 -3.133,1.56952 -7,3c-2.09717,0.77579 -2.84073,2.38934 0,1c3.23892,-1.58411 6.04733,-4.9379 10,-8c5.06186,-3.92142 7.38687,-10.0824 10,-9c1.84775,0.76538 0,4 -2,6c-2,2 -4,4 -7,5c-3,1 -5.41208,0.96854 -9,3c-1.23065,0.69678 -3.07611,1.61731 -4,2c-1.30655,0.5412 0,-2 2,-5c4,-6 8,-12 14,-20c6,-8 12.72961,-16.22885 17,-21c3.77267,-4.21509 9.29291,-5.70709 10,-5c1.41422,1.41422 -1.71411,4.21167 -4,7c-2.68979,3.28101 -9.0979,6.82443 -11,8c-4.25326,2.62866 -6.71899,5.31021 -10,8c-2.78833,2.28589 -4.85272,4.1731 -6,5c-1.81399,1.30746 -7,2 -5,4c4,4 8.51382,-8.52139 15,-16c6.55203,-7.55453 15,-18 24,-25c9,-7 13.90778,-12.49622 18,-13c0.99249,-0.12219 -0.14682,1.86325 -2,4c-3.276,3.77728 -10.39154,9.29773 -18,14c-8.5065,5.25732 -15.86588,13.20889 -22,17c-6.85815,4.23859 -12.86829,9.28857 -17,11c-2.92157,1.21014 -4.61731,4.07611 -5,5c-0.5412,1.30655 -1.61731,3.07611 -2,4c-0.5412,1.30655 -2.9176,2.38687 -4,5c-0.76538,1.84775 -1.48627,3.82376 -2,6c-0.4595,1.9465 -2.4588,5.69345 -3,7c-0.76538,1.84775 0,4 0,5c0,2 0,3 0,4c0,1 -0.22272,3.75601 2,4c4.09848,0.44989 5.37201,-1.3851 9,-4c2.29453,-1.65381 5.18601,-3.69254 7,-5c1.14728,-0.8269 1.85272,-2.1731 3,-3c1.81399,-1.30746 0.93399,-1.12234 -1,0c-3.11847,1.80972 -3.82376,3.48627 -6,4c-0.97324,0.22977 -4.5412,1.30655 -4,0c0.38269,-0.92389 3,-2 4,-3c1,-1 3,-2 4,-3c1,-1 -1.85272,0.1731 -3,1c-1.81399,1.30746 -4.38687,2.9176 -7,4c-0.92389,0.38269 -1.69345,0.4588 -3,1c-0.92389,0.38269 -3.4588,-0.30655 -4,1c-0.38269,0.92389 -1.30655,3.4588 0,4c0.92389,0.38269 3.07611,-1.61731 4,-2c1.30655,-0.5412 1.93414,-1.14429 4,-2c2.92157,-1.21014 3.59399,-2.513 6,-4c2.69,-1.66251 6.85272,-4.1731 8,-5c1.81399,-1.30746 4.69345,-4.4588 6,-5c0.92389,-0.38269 2.22272,-0.724 6,-4c2.13675,-1.85318 5,-5 7,-7c4,-4 7.22272,-5.724 11,-9c3.20511,-2.77979 4.20682,-3.81265 6,-6c2.28589,-2.78833 2.70129,-5.05145 1,-4c-1.9021,1.17557 -3.5582,4.51929 -7,7c-1.81399,1.30746 -5,3 -8,5c-3,2 -6.06601,4.87766 -8,6c-3.11847,1.80972 -5,4 -6,5c-1,1 0.71411,-3.21167 3,-6c2.68979,-3.28101 9.08865,-11.94183 13,-18c5.11707,-7.92563 9,-12 15,-18c4,-4 8,-8 12,-12c4,-4 4.58578,-6 6,-6c1.41422,0 -2.513,3.59399 -4,6c-1.66251,2.69 -3,5 -6,8c-2,2 -5,5 -6,6c-1,1 -2,1 -3,1c-1,0 -2.41589,3.76108 -4,7c-2.77872,5.68146 -4,8 -5,9c-1,1 0.15225,1.76538 2,1c1.30655,-0.5412 4.4588,-3.69345 5,-5c0.76538,-1.84775 -1,-3 -2,-2c-1,1 -3,2 -5,4c-1,1 -3,3 -4,3c-1,0 -2,1 -3,2c-1,1 -2.797,2.2565 -4,3c-2.69,1.66251 -4.93414,3.14429 -7,4c-2.92157,1.21014 -6.87604,3.34314 -12,5c-3.9231,1.26855 -5.86829,1.28857 -10,3c-2.92157,1.21014 -7.88495,1.27432 -10,2c-4.82303,1.65482 -10.01007,2.71643 -14,3c-7.05328,0.50125 -13.38061,2.44351 -19,4c-4.81857,1.33466 -8.59399,0.513 -11,2c-2.69,1.66251 -4.87857,1.49347 -8,2c-1.97418,0.32037 -5.54916,1.95517 -9,3c-1.91418,0.57956 -3,0 -6,0c-1,0 -4,1 -5,1c-1,0 -2.01291,0.83981 -3,1c-3.12144,0.50653 -3.76108,1.41589 -7,3c-2.84073,1.38934 -5.18601,0.69254 -7,2c-1.14726,0.8269 -4.797,2.2565 -6,3c-2.68999,1.66251 -5.07843,1.78986 -8,3c-2.06586,0.85571 -2.82375,2.48627 -5,3c-0.97325,0.22977 -4,1 -5,1c-1,0 -3,1 -4,1c-2,0 -3,0 -5,0c-1,0 -2,0 -3,0c-3,0 -4,0 -5,0c-2,0 -3.07613,0.38269 -4,0c-1.30656,-0.5412 -0.23463,-2.15225 -1,-4c-0.5412,-1.30655 -3,-6 -3,-8c0,-2 -2,-5 -2,-6c0,-1 -1,-2 -1,-1c0,1 0,2 0,4c0,2 0,3 0,4c0,2 0,3 0,4c0,1 -1,2 -2,2c-1,0 -3,-1 -3,-4c0,-4 0,-8 0,-10c0,-3 0,-4 0,-5c0,-1 -0.14806,-1.77164 1,1c1.0824,2.61313 2,4 2,6c0,1 0,4 0,5c0,1 0,3 0,2c0,-3 0,-4 0,-7c0,-1 1.49345,-0.12143 2,3c0.32036,1.97418 0.1731,4.85272 1,6c1.30745,1.81399 1.797,4.7435 3,4c2.68999,-1.66251 -3.61383,-4.297 -6,-7c-1.47984,-1.67633 -1.82375,-3.48627 -4,-4c-0.97325,-0.22977 -2.66251,-0.69 -1,2c0.7435,1.203 2.85274,2.1731 4,3c1.814,1.30746 2.69344,2.4588 4,3c0.92387,0.38269 2,1 0,1c-2,0 -6.186,-1.69254 -8,-3c-2.29454,-1.65381 -4,-4 -5,-5c-1,-1 -2.38269,-2.07611 -2,-3c0.5412,-1.30655 3.01291,-1.16019 4,-1c3.12144,0.50653 3.797,1.2565 5,2c2.68999,1.66251 5.186,2.69254 7,4c1.14726,0.8269 2.68999,2.66251 0,1c-4.81201,-2.974 -15,-11 -22,-18c-7,-7 -13.5914,-7.21664 -19,-10c-1.25748,-0.64713 -1.28587,0.21167 1,3c1.7932,2.18735 4.21167,2.71411 7,5c1.09367,0.89661 3.06601,1.87766 5,3c3.11848,1.80972 4.186,2.69254 6,4c1.14726,0.8269 3,2 5,4c1,1 -1.71899,-0.31021 -5,-3c-5.57665,-4.57175 -11.76305,-9.38055 -18,-13c-7.73599,-4.48938 -12,-8 -13,-9c-2,-2 -0.69552,-5.53073 3,-4c2.61313,1.0824 6.62001,1.67499 12,5c2.40601,1.487 5.02675,2.77023 6,3c2.17625,0.51373 5.45306,0.2081 5,3c-0.35818,2.20718 -5.85274,-2.1731 -7,-3c-1.814,-1.30746 -1.17625,0.48627 1,1c0.97325,0.22977 2.85274,2.1731 4,3c1.814,1.30746 3.31021,2.71899 6,6c2.28587,2.78833 4,6 7,8c3,2 5.85274,5.1731 7,6c1.814,1.30746 4.15099,0.43463 6,3c0.58472,0.81125 1,2 0,2c-2,0 -5.133,-0.56952 -9,-2c-2.09717,-0.77579 -5.5582,-2.51929 -9,-5c-1.814,-1.30746 -5,-2.58578 -5,-4c0,-1.41422 2.93414,0.14429 5,1c2.92157,1.21014 4.07613,2.38269 5,2c1.30656,-0.5412 -2,-4 -4,-7c-2,-3 -4.71413,-5.21167 -7,-8c-0.89659,-1.09366 -1.69344,-4.5412 -3,-4c-0.92387,0.38269 -1.186,0.30746 -3,-1c-1.14726,-0.8269 -2,-2 -3,-3c-1,-1 -2,-2 -2,0c0,2 1.61731,4.07611 2,5c1.62358,3.91968 4,4 5,5c1,1 1.9176,1.38687 3,4c0.38269,0.92389 -0.70546,1.65381 -3,0c-1.814,-1.30746 -2.70546,-2.34619 -5,-4c-1.814,-1.30746 -3.95517,-1.54916 -5,-5c-0.28978,-0.95709 -4.58115,-3.41885 -3,-5c1.58115,-1.58115 5.85274,5.8269 7,5c1.814,-1.30746 -1.75531,-4.13202 -4,-8c-1.80972,-3.11847 -4.31021,-6.71899 -7,-10c-2.28588,-2.78833 -3.91761,-5.38687 -5,-8c-0.38268,-0.92389 0,-3 -1,-3c-1,0 1.41886,4.41885 3,6c1.58114,1.58115 3.85274,3.1731 5,4c1.814,1.30746 3.34619,1.70547 5,4c1.30745,1.81399 3.2565,5.797 4,7c1.66251,2.69 5.0824,3.38687 4,6c-0.38269,0.92389 -4.06601,0.12234 -6,-1c-3.11848,-1.80972 -4,-3 -6,-4c-2,-1 -4,-3 -5,-4c-1,-1 -3,-3 -4,-4c-1,-1 1.4588,1.30655 2,0c0.38268,-0.92389 0.30745,-4.18601 -1,-6c-1.65381,-2.29453 -3.11214,-4.9183 -6,-9c-2.08247,-2.94336 -4.48626,-5.82376 -5,-8c-0.4595,-1.9465 -1.76537,-4.15225 -1,-6c0.5412,-1.30655 3.1034,-0.09366 4,1c2.28588,2.78833 4,5 5,7c1,2 3,4 4,6c2,4 4.513,5.59399 6,8c1.66251,2.69 3.48625,4.82376 4,7c0.22975,0.97324 -1.04291,2.2898 -2,2c-3.45085,-1.04483 -5.34619,-3.70547 -7,-6c-2.61491,-3.62799 -3.77025,-6.02676 -4,-7c-0.51374,-2.17624 -0.69255,-4.18601 -2,-6c-0.8269,-1.14728 -1,-2 -1,-3c0,-1 0,0 0,1c0,1 1.2565,3.797 2,5c1.66251,2.69 0.23463,4.15225 1,6c1.08239,2.61313 2.31074,4.08026 3,7c0.51374,2.17624 1,3 1,5c0,1 0,-1 0,-4c0,-2 0.37821,-5.0361 0,-7c-1.01837,-5.28799 -2,-8 -2,-10c0,-2 0,-3 0,-2c0,4 1.61065,6.15927 3,9c1.58411,3.23892 3.14429,3.93414 4,6c1.21014,2.92157 2.48625,4.82376 3,7c0.4595,1.9465 -2.12144,6.50653 1,6c3.94835,-0.64072 -3.91034,-6.0983 -6,-13c-0.28979,-0.95709 1.2072,-4.64182 -1,-5c-1.39595,-0.22653 0,2 0,3c0,2 0,3 0,4c0,1 0,2 0,4c0,1 0,2 0,3c0,1 0,2 0,3c0,1 0,3 0,2c0,-2 -0.49622,-3.90778 -1,-8c-0.24437,-1.98502 -0.5695,-6.133 -2,-10c-0.77579,-2.09717 -2.78985,-6.07843 -4,-9c-0.85571,-2.06586 2,1 4,4c2,3 4.48625,5.82376 5,8c0.4595,1.9465 1.4588,2.69345 2,4c0.76537,1.84775 0.22975,3.02676 0,4c-0.51375,2.17624 -3.07612,4.38269 -4,4c-1.30656,-0.5412 -0.51374,-1.82376 0,-4c0.22975,-0.97324 0,-2 0,-3c0,-2 -0.1731,-2.85272 -1,-4c-1.30745,-1.81399 -1.1731,-2.85272 -2,-4c-1.30745,-1.81399 -2.4588,-2.69345 -3,-4c-0.38268,-0.92389 0.91901,-3.10699 0,-7c-0.51374,-2.17624 -1.61732,-5.07611 -2,-6c-0.5412,-1.30655 -2,-1 -3,-1c-1,0 -2.76537,0.15225 -2,2c1.08239,2.61313 2.48626,2.82376 3,5c0.22975,0.97324 1.38268,1.92389 1,1c-1.08239,-2.61313 -3,-3 -3,-5c0,-1 0.76537,-2.15225 0,-4c-0.5412,-1.30655 -1,-2 -1,-3c0,-2 0.16018,-4.01291 0,-5c-0.50654,-3.12143 -0.61732,-4.07611 -1,-5c-1.08239,-2.61313 -2.4588,-2.69345 -3,-4c-0.38268,-0.92389 0,-2 0,-3c0,-1 -1.4588,-1.69345 -2,-3c-0.76537,-1.84775 -2.48626,-3.82376 -3,-6c-0.22975,-0.97324 0,-2 0,-3c0,-1 0,-3 0,-4c0,-1 -1,-2 -1,-4c0,-1 0,-2 0,-3c0,-2 0,-3 0,-4c0,-1 0,-3 0,-4c0,-1 0,-2 0,-4c0,-1 -0.4588,-1.69345 -1,-3c-0.76537,-1.84775 -1,-3 -2,-3c-1,0 -2,1 -2,2c0,2 1.4588,2.69345 2,4c1.14805,2.77164 0.83982,5.01291 1,6c0.50654,3.12143 1,4 1,5c0,2 0.48626,2.82376 1,5c0.4595,1.9465 -0.38268,3.07611 0,4c1.08239,2.61313 1.77025,3.02676 2,4c0.51374,2.17624 0.61732,5.07611 1,6c0.5412,1.30655 0.61732,3.07611 1,4c0.5412,1.30655 0.23463,2.15225 1,4c0.5412,1.30655 2,2 1,1c-1,-1 -2,-2 -2,-4c0,-1 -1.2565,-1.797 -2,-3c-1.66251,-2.69 -0.69344,-5.5412 -2,-5c-1.84776,0.76538 0.91761,3.38687 2,6c0.76537,1.84775 0.4588,4.69345 1,6c0.38268,0.92389 0.4588,1.69345 1,3c0.38268,0.92389 -0.38268,2.07611 0,3c0.5412,1.30655 2.07612,0.61731 3,1c1.30656,0.5412 2,2 3,3c1,1 1.85273,2.1731 3,3c1.814,1.30746 2.17625,2.48627 0,3c-0.97325,0.22977 -3.69255,-2.18601 -5,-4c-0.8269,-1.14728 -2,-2 -2,-3c0,-1 0.38268,-3.07611 0,-4c-0.5412,-1.30655 -2.84776,-3.23462 -1,-4c2.61313,-1.0824 2,4 2,5c0,1 0,4 0,5c0,1 1,3 1,4c0,1 0.4588,1.69345 1,3c0.38268,0.92389 1,2 2,2c2,0 3.08025,0.68927 6,0c2.17625,-0.51373 4.82375,-2.48627 7,-3c1.9465,-0.4595 3,-1 4,-2c1,-1 3,-2 4,-3c2,-2 2.84776,-2.23462 1,-3c-1.30656,-0.5412 -2.10701,-0.08099 -6,-1c-2.17625,-0.51373 -5,-1 -9,-3c-2,-1 -2.82375,-1.48627 -5,-2c-0.97325,-0.22977 -2,-1 -3,-2c-1,-1 -1.34619,-1.70547 -3,-4c-1.30745,-1.81399 -1.61732,-3.07611 -2,-4c-0.5412,-1.30655 -0.69255,-2.18601 -2,-4c-0.8269,-1.14728 -2,-2 -3,-2l-1,-1"/>
      <path stroke="#ffffff" fill="none" stroke-width="4" id="svg_24" d="m5652.353933,3791.856038c-2,0 -2.38687,-0.9176 -5,-2c-1.84775,-0.76537 -2.61731,-1.07613 -3,-2c-0.5412,-1.30656 -1,-4 -1,-5c0,-3 0,-4 0,-5c0,-2 0.30655,-4.5412 -1,-4c-1.84775,0.76537 2.19028,4.88152 4,8c1.12234,1.93399 3.1731,3.85274 4,5c1.30746,1.81399 2.9176,4.38687 4,7c0.38269,0.92387 1.38269,2.07613 1,3c-0.5412,1.30656 -3.0535,1.4595 -5,1c-2.17624,-0.51375 -3.77023,-2.02675 -4,-3c-0.51373,-2.17625 -2.33749,-3.31001 -4,-6c-0.7435,-1.203 -1,-3 -1,-5c0,-3 -2.71411,-6.21167 -5,-9c-1.79318,-2.18735 -3.9176,-3.38687 -5,-6c-0.38269,-0.92387 -2.23462,-3.15224 -3,-5c-0.5412,-1.30656 -2,-2 -2,-3c0,-1 -2,-3 -2,-6c0,-1 -1,-2 -1,-4c0,-1 0,-3 0,-5c0,-1 -0.38269,-2.07613 0,-3c0.5412,-1.30656 2,0 2,2c0,2 -0.76538,4.15224 0,6c0.5412,1.30656 0.69345,4.5412 2,4c0.92389,-0.38269 -0.48627,-1.82375 -1,-4c-0.22977,-0.97325 0,-2 0,-3c0,-2 0,-3 0,-4c0,-1 1,-4 0,-4c-1,0 0,2 0,4c0,1 0,3 0,5c0,1 -1.4588,2.69344 -2,4c-0.38269,0.92387 0,2 0,1c0,-1 -0.48627,-2.82375 -1,-5c-0.22977,-0.97325 0,-3 0,-5c0,-1 0,-3 0,-4c0,-1 -0.30655,-2.4588 1,-3c0.92389,-0.38269 2.61383,-0.703 5,2c1.47983,1.67633 2.49622,2.90779 3,7c0.12219,0.99251 1.75565,4.01498 2,6c0.50378,4.09221 1.49347,4.87856 2,8c0.32037,1.97418 0,1 0,-2c0,-2 -2,-6 -3,-8c-1,-2 -1,-5 -2,-6c-2,-2 -2.69345,-4.5412 -4,-4c-0.92389,0.38269 0,2 0,5c0,1 0,4 0,6c0,1 0,3 0,4c0,1 0,2 0,4c0,1 0,-1 0,-4c0,-4 0,-7 0,-10c0,-2 1,-5 0,-5c-2,0 1.91534,9.3118 5,18c2.99255,8.42879 9,17 11,25c2,8 3.57971,12.15688 6,18c1.71143,4.13171 3,7 3,9c0,3 1.14429,3.93414 2,6c1.21014,2.92157 3,6 3,7c0,1 0.20605,-0.08743 -2,-5c-1.83203,-4.07967 -3.33197,-7.22935 -5,-11c-1.45865,-3.29733 -4,-5 -7,-8c-1,-1 -1.69254,-3.18601 -3,-5c-2.48071,-3.4418 -3.95517,-4.54915 -5,-8c-0.2898,-0.95709 -1.41422,-2.58578 0,-4c0.70709,-0.70711 4,2 5,3l1,1l1,0l1,0"/>
      <line stroke="#dddd00" fill="none" stroke-width="6" x1="5493.353933" y1="3800.856038" x2="5533.353933" y2="3849.856038" id="svg_23" stroke-linejoin="null" stroke-linecap="null"/>
      <line stroke="#dddd00" fill="none" stroke-width="6" x1="5513.353933" y1="3827.856038" x2="5501.353933" y2="3854.85604" id="svg_22" stroke-linejoin="null" stroke-linecap="null"/>
      <line stroke="#dddd00" fill="none" stroke-width="6" fill-opacity="null" x1="5517.736722" y1="3838.021332" x2="5541.611896" y2="3813.370046" id="svg_21" stroke-linejoin="null" stroke-linecap="null" transform="rotate(46.67257308959961 5529.674316406251,3825.683837890624) "/>
     </g>
     <rect stroke="#ffffff" fill="#ffffff" stroke-width="0" x="5662.353933" y="3792.856038" width="64" height="61" id="svg_19"/>
    </g>
    <text stroke="#000" transform="matrix(1.0178874887760685,0,0,1,-19.24839198043611,0) " xml:space="preserve" text-anchor="start" font-family="Helvetica, Arial, sans-serif" font-size="24" id="svg_40" y="236" x="456.894561" stroke-width="0" fill="#000000">Ship moving</text>
    <text xml:space="preserve" text-anchor="start" font-family="Helvetica, Arial, sans-serif" font-size="24" id="svg_41" y="266" x="446" fill-opacity="null" stroke-opacity="null" stroke-width="0" stroke="#000" fill="#000000">this way</text>
    <text xml:space="preserve" text-anchor="start" font-family="Helvetica, Arial, sans-serif" font-size="24" id="svg_42" y="91" x="399" fill-opacity="null" stroke-opacity="null" stroke-width="0" stroke="#000" fill="#000000">Dashed line is</text>
    <text stroke="#000" transform="matrix(1,0,0,0.9401709467936782,0,4.632477584557698) " xml:space="preserve" text-anchor="start" font-family="Helvetica, Arial, sans-serif" font-size="24" id="svg_43" y="120.572728" x="399" fill-opacity="null" stroke-opacity="null" stroke-width="0" fill="#000000">desired direction</text>
    <text xml:space="preserve" text-anchor="start" font-family="Helvetica, Arial, sans-serif" font-size="24" id="svg_45" y="144" x="399" fill-opacity="null" stroke-opacity="null" stroke-width="0" stroke="#000" fill="#000000">of motion</text>
    <text xml:space="preserve" text-anchor="start" font-family="Helvetica, Arial, sans-serif" font-size="22" id="svg_51" y="179" x="6" fill-opacity="null" stroke-opacity="null" stroke-width="0" stroke="#000" fill="#000000">Subtract from the</text>
    <text xml:space="preserve" text-anchor="start" font-family="Helvetica, Arial, sans-serif" font-size="22" id="svg_52" y="204" x="8" fill-opacity="null" stroke-opacity="null" stroke-width="0" stroke="#000" fill="#000000">ship's current</text>
    <text xml:space="preserve" text-anchor="start" font-family="Helvetica, Arial, sans-serif" font-size="22" id="svg_54" y="228" x="8" fill-opacity="null" stroke-opacity="null" stroke-width="0" stroke="#000" fill="#000000">velocity by</text>
    <text xml:space="preserve" text-anchor="start" font-family="Helvetica, Arial, sans-serif" font-size="22" id="svg_55" y="256" x="8" fill-opacity="null" stroke-opacity="null" stroke-width="0" stroke="#000" fill="#000000">thrusting in this</text>
    <text xml:space="preserve" text-anchor="start" font-family="Helvetica, Arial, sans-serif" font-size="22" id="svg_56" y="283" x="7" fill-opacity="null" stroke-opacity="null" stroke-width="0" stroke="#000" fill="#000000">direction</text>
    <text xml:space="preserve" text-anchor="start" font-family="Helvetica, Arial, sans-serif" font-size="22" id="svg_58" y="20" x="5" fill-opacity="null" stroke-opacity="null" stroke-width="0" stroke="#000" fill="#000000">To change the ship's motion to</text>
    <text xml:space="preserve" text-anchor="start" font-family="Helvetica, Arial, sans-serif" font-size="22" id="svg_61" y="45" x="7" fill-opacity="null" stroke-opacity="null" stroke-width="0" stroke="#000" fill="#000000">be parallel to the dashed line,</text>
    <text xml:space="preserve" text-anchor="start" font-family="Helvetica, Arial, sans-serif" font-size="22" id="svg_65" y="70" x="7" fill-opacity="null" stroke-opacity="null" stroke-width="0" stroke="#000" fill="#000000">thrust anywhere in the dark yellow</text>
    <text xml:space="preserve" text-anchor="start" font-family="Helvetica, Arial, sans-serif" font-size="22" id="svg_66" y="97" x="6" fill-opacity="null" stroke-opacity="null" stroke-width="0" stroke="#000" fill="#000000">arc until the ship moves</text>
    <text xml:space="preserve" text-anchor="start" font-family="Helvetica, Arial, sans-serif" font-size="22" id="svg_67" y="124" x="6" fill-opacity="null" stroke-opacity="null" stroke-width="0" stroke="#000" fill="#000000">along the dashed line</text>
   </g>
  </g>
 </g>
</svg>